<svg width="115" height="25" viewBox="0 0 115 25" fill="none" xmlns="http://www.w3.org/2000/svg">
<path d="M42.1058 18.2394V4.89938H39.7258L35.5658 14.9394L31.4258 4.89938H29.0458V18.2394H30.7058V7.25938L35.2258 18.2394H35.9058L40.4458 7.25938V18.2394H42.1058ZM44.6177 22.0194C44.8977 22.0994 45.3977 22.1594 45.7177 22.1594C46.9977 22.1394 47.9777 21.5994 48.5577 20.1994L53.3977 8.57938H51.7577L48.5577 16.4994L45.3377 8.57938H43.7177L47.7577 18.3394L47.1177 19.7994C46.7777 20.5994 46.3377 20.8194 45.6777 20.8194C45.4377 20.8194 45.0777 20.7594 44.8577 20.6594L44.6177 22.0194ZM64.8787 18.4794C67.4187 18.4794 69.1787 16.5194 69.1787 13.3994C69.1787 10.2594 67.4187 8.33938 64.8787 8.33938C63.5187 8.33938 62.3187 9.03938 61.6187 10.0194V8.57938H60.1187V21.9194H61.6187V16.7794C62.3987 17.8594 63.5587 18.4794 64.8787 18.4794ZM64.4987 17.1394C63.3187 17.1394 62.1387 16.4194 61.6187 15.5794V11.2194C62.1387 10.3794 63.3187 9.67938 64.4987 9.67938C66.4387 9.67938 67.5987 11.2594 67.5987 13.3994C67.5987 15.5394 66.4387 17.1394 64.4987 17.1394ZM73.064 18.2394V11.3994C73.504 10.6194 74.764 9.85938 75.684 9.85938C75.924 9.85938 76.104 9.87938 76.284 9.91938V8.37938C74.964 8.37938 73.844 9.11938 73.064 10.1394V8.57938H71.564V18.2394H73.064ZM82.3855 18.4794C85.3255 18.4794 87.1655 16.1994 87.1655 13.3994C87.1655 10.5994 85.3255 8.33938 82.3855 8.33938C79.4455 8.33938 77.6055 10.5994 77.6055 13.3994C77.6055 16.1994 79.4455 18.4794 82.3855 18.4794ZM82.3855 17.1394C80.3255 17.1394 79.1655 15.3794 79.1655 13.3994C79.1655 11.4394 80.3255 9.67938 82.3855 9.67938C84.4455 9.67938 85.5855 11.4394 85.5855 13.3994C85.5855 15.3794 84.4455 17.1394 82.3855 17.1394ZM91.5308 18.2394V9.89938H93.4908V8.57938H91.5308V7.83938C91.5308 6.61938 92.0708 5.93938 93.0508 5.93938C93.4308 5.93938 93.6908 6.03938 93.9108 6.17938L94.2908 5.03938C93.9108 4.79938 93.3908 4.69938 92.8308 4.69938C91.1508 4.69938 90.0308 5.83938 90.0308 7.83938V8.57938H88.4308V9.89938H90.0308V18.2394H91.5308ZM96.0108 7.19938C96.5708 7.19938 97.0308 6.75938 97.0308 6.19938C97.0308 5.63938 96.5708 5.17938 96.0108 5.17938C95.4708 5.17938 95.0108 5.63938 95.0108 6.19938C95.0108 6.75938 95.4708 7.19938 96.0108 7.19938ZM96.7708 18.2394V8.57938H95.2708V18.2394H96.7708ZM101.287 18.2394V4.89938H99.7866V18.2394H101.287ZM108.639 18.4794C110.219 18.4794 111.519 17.9594 112.479 16.9994L111.759 16.0194C110.999 16.7994 109.879 17.2394 108.779 17.2394C106.699 17.2394 105.419 15.7194 105.299 13.8994H113.119V13.5194C113.119 10.6194 111.399 8.33938 108.479 8.33938C105.719 8.33938 103.719 10.5994 103.719 13.3994C103.719 16.4194 105.779 18.4794 108.639 18.4794ZM111.639 12.7994H105.299C105.379 11.3194 106.399 9.57938 108.459 9.57938C110.659 9.57938 111.619 11.3594 111.639 12.7994Z" fill="#262626"/>
<path fill-rule="evenodd" clip-rule="evenodd" d="M20.8104 18.9181C20.327 17.6297 19.5858 16.4538 18.6322 15.4622C17.6786 14.4707 16.5327 13.6845 15.2648 13.1518C15.9543 12.5851 16.5111 11.8738 16.8959 11.0682C17.2807 10.2626 17.4841 9.38224 17.4918 8.48934C17.4669 6.92449 16.8634 5.42441 15.7979 4.27887C14.7323 3.13333 13.2804 2.4236 11.7226 2.28684C11.2124 2.22356 10.6965 2.22356 10.1863 2.28684C8.62937 2.42477 7.17864 3.13501 6.11415 4.28043C5.04967 5.42586 4.44685 6.92527 4.42206 8.48934C4.42948 9.38229 4.63279 10.2627 5.0176 11.0684C5.40242 11.874 5.95939 12.5853 6.64909 13.1518C5.3809 13.6843 4.23474 14.4704 3.28092 15.4619C2.32709 16.4535 1.5857 17.6296 1.10219 18.9181C0.965799 19.2948 0.925311 19.6996 0.984406 20.0959C1.0435 20.4922 1.20032 20.8676 1.44067 21.1881C1.69008 21.5172 2.01278 21.7837 2.38311 21.9661C2.75344 22.1486 3.16122 22.2422 3.574 22.2393H18.3486C18.761 22.2421 19.1684 22.1485 19.5383 21.966C19.9082 21.7835 20.2305 21.5171 20.4795 21.1881C20.7192 20.8672 20.875 20.4915 20.9328 20.0951C20.9906 19.6987 20.9485 19.2941 20.8104 18.9181ZM7.03628 8.48934C7.05355 7.54154 7.42368 6.63431 8.07425 5.94532C8.72481 5.25632 9.60893 4.83517 10.5535 4.76433C10.8227 4.73099 11.0949 4.73099 11.3641 4.76433C12.0745 4.87333 12.7388 5.18391 13.2782 5.65922C13.8176 6.13452 14.2095 6.75464 14.4075 7.44606C14.6054 8.13748 14.6012 8.8712 14.3952 9.56027C14.1891 10.2493 13.79 10.8649 13.2452 11.3338C12.7003 11.8028 12.0325 12.1056 11.3209 12.2063C10.6093 12.3071 9.88369 12.2014 9.23022 11.9021C8.57675 11.6027 8.02277 11.1221 7.63392 10.5172C7.24506 9.91235 7.03766 9.20858 7.03628 8.48934ZM3.57148 19.7393C4.16342 18.2632 5.18335 16.9981 6.49994 16.1072C7.81652 15.2162 9.36949 14.7401 10.9588 14.7401C12.5482 14.7401 14.1011 15.2162 15.4177 16.1072C16.7343 16.9981 17.7542 18.2632 18.3461 19.7393H3.574H3.57148Z" fill="#22262A"/>
</svg>
