<svg width="40" height="26" viewBox="0 0 40 26" fill="none" xmlns="http://www.w3.org/2000/svg">
<path d="M2.66172 0.385986H37.6438C37.867 0.390407 38.0872 0.439022 38.2917 0.528564C38.4963 0.618107 38.6812 0.746933 38.8359 0.907959C38.9906 1.06898 39.1122 1.25906 39.1935 1.46704C39.2748 1.67502 39.3142 1.8971 39.3097 2.12036V23.7961C39.3185 24.2469 39.148 24.6826 38.8356 25.0076C38.5231 25.3326 38.0945 25.5201 37.6438 25.5291H2.66172C2.211 25.5201 1.78225 25.3326 1.46983 25.0076C1.1574 24.6826 0.986868 24.2469 0.995708 23.7961V2.12036C0.991198 1.8971 1.03075 1.67502 1.11204 1.46704C1.19333 1.25906 1.31475 1.06898 1.46946 0.907959C1.62417 0.746933 1.80909 0.618107 2.01365 0.528564C2.21822 0.439022 2.43846 0.390407 2.66172 0.385986Z" fill="#353A40"/>
<path d="M23.6847 16.9503C23.4203 16.8159 23.2029 16.6042 23.0608 16.3439C22.8904 16.0252 22.8075 15.6674 22.8208 15.3063C22.8061 15.0601 22.8404 14.8135 22.9218 14.5807C23.0031 14.3479 23.13 14.1337 23.2948 13.9503C23.47 13.7834 23.6777 13.6542 23.9049 13.5709C24.1322 13.4877 24.3741 13.4517 24.6157 13.466C24.8592 13.4503 25.1033 13.4845 25.333 13.5665C25.5627 13.6486 25.7733 13.7767 25.9518 13.943C26.1151 14.123 26.2406 14.3338 26.3212 14.5631C26.4017 14.7924 26.4356 15.0354 26.4208 15.278C26.4356 15.6296 26.367 15.9798 26.2207 16.2999C26.0885 16.5605 25.8827 16.7765 25.6288 16.921C25.3314 17.0783 24.9979 17.155 24.6617 17.1432C24.3255 17.1553 23.991 17.0894 23.6847 16.9503ZM24.0907 14.5333C23.9618 14.7717 23.8943 15.0382 23.8943 15.3092C23.8943 15.5802 23.9618 15.8468 24.0907 16.0851C24.1587 16.1589 24.2413 16.2176 24.3333 16.2579C24.4252 16.2982 24.5244 16.3195 24.6248 16.3195C24.7251 16.3195 24.8243 16.2982 24.9163 16.2579C25.0082 16.2176 25.0907 16.1589 25.1587 16.0851C25.3103 15.8378 25.377 15.5476 25.3488 15.2589C25.3703 14.9984 25.2995 14.7387 25.1488 14.525C25.0827 14.4485 25.0001 14.3883 24.9072 14.3483C24.8144 14.3083 24.7138 14.2896 24.6128 14.2941C24.5133 14.2913 24.4145 14.3112 24.324 14.3527C24.2335 14.3941 24.1536 14.4562 24.0907 14.5333ZM14.1787 17.1071C14.0044 17.0899 13.8349 17.0404 13.6787 16.9611C13.5371 16.8838 13.4122 16.7794 13.3108 16.6539C13.207 16.5349 13.129 16.396 13.0818 16.2452C13.0204 16.0509 12.9868 15.8489 12.9818 15.6451V13.527H14.0527V15.695C14.0479 15.7774 14.0595 15.8602 14.0868 15.9381C14.1141 16.016 14.1566 16.0876 14.2118 16.1491C14.3331 16.2533 14.4877 16.3107 14.6477 16.3107C14.8077 16.3107 14.9624 16.2533 15.0837 16.1491C15.1389 16.087 15.1813 16.0146 15.2084 15.9362C15.2355 15.8577 15.2468 15.7749 15.2417 15.692V13.5241H16.3127V15.6422C16.3133 15.8464 16.2795 16.0493 16.2128 16.2423C16.1511 16.4259 16.0485 16.5929 15.9127 16.7311C15.793 16.8617 15.6459 16.9639 15.4818 17.0309C15.2406 17.1149 14.9861 17.155 14.7307 17.1491C14.5464 17.1454 14.3625 17.1311 14.1798 17.1061L14.1787 17.1071ZM29.3177 17.0831L28.0177 15.131V17.0831H27.0077V13.528H28.0077L29.3168 15.4943V13.528H30.3287V17.0831H29.3177ZM19.3397 17.0831L18.0398 15.131V17.0831H17.0298V13.528H18.0298L19.3378 15.4943V13.528H20.3497V17.0831H19.3397ZM21.1097 17.0739V13.525H22.1897V17.0739H21.1097ZM12.9048 12.0929C12.6733 11.853 12.5358 11.5381 12.5177 11.2052L13.5398 11.1403C13.5505 11.2789 13.5965 11.4122 13.6737 11.528C13.7294 11.5996 13.8016 11.6567 13.8842 11.6945C13.9667 11.7322 14.0571 11.7499 14.1477 11.7452C14.2757 11.7538 14.4024 11.7139 14.5028 11.6339C14.5404 11.6042 14.5708 11.5666 14.5919 11.5236C14.613 11.4806 14.6243 11.4333 14.6249 11.3854C14.6255 11.3375 14.6153 11.2902 14.5952 11.2467C14.5751 11.2032 14.5456 11.1646 14.5088 11.1339C14.3426 11.0262 14.1548 10.9558 13.9587 10.9279C13.5933 10.8667 13.248 10.7189 12.9518 10.4962C12.8541 10.4112 12.7765 10.3053 12.7246 10.1867C12.6727 10.068 12.6479 9.93961 12.6517 9.81019C12.6522 9.62648 12.7061 9.44677 12.8068 9.2931C12.9207 9.12168 13.0834 8.98847 13.2738 8.91029C13.5463 8.80593 13.8373 8.75846 14.1288 8.77113C14.4857 8.74732 14.8411 8.83607 15.1448 9.02503C15.2673 9.12197 15.3677 9.24414 15.4395 9.38294C15.5112 9.52175 15.5526 9.67418 15.5608 9.83021L14.5487 9.89124C14.5355 9.75836 14.4753 9.63447 14.3788 9.54212C14.2767 9.46419 14.1499 9.42562 14.0217 9.43324C13.9211 9.4259 13.8212 9.45467 13.7397 9.51429C13.7098 9.53824 13.6856 9.56851 13.6692 9.60316C13.6527 9.63781 13.6444 9.67564 13.6448 9.714C13.6456 9.74394 13.6531 9.77328 13.6667 9.79994C13.6804 9.82659 13.6999 9.85018 13.7238 9.86829C13.833 9.93783 13.9562 9.98212 14.0847 9.99818C14.4323 10.0625 14.771 10.1679 15.0938 10.3121C15.2757 10.3994 15.4293 10.5363 15.5367 10.7072C15.6296 10.8664 15.6774 11.0478 15.6748 11.2321C15.676 11.4559 15.6117 11.6752 15.4897 11.8629C15.3643 12.0567 15.1845 12.2091 14.9728 12.3009C14.7075 12.408 14.4227 12.4591 14.1367 12.4503C13.6951 12.4965 13.2529 12.3676 12.9048 12.0919V12.0929ZM29.3187 12.3829L28.0188 10.4303V12.3829H27.0088V8.82826H28.0088L29.3177 10.7951V8.82826H30.3297V12.3829H29.3187ZM25.4437 12.3829L24.8698 11.296C24.8236 11.193 24.7573 11.1002 24.6748 11.0231C24.5979 10.9681 24.5054 10.939 24.4108 10.9401H24.3158V12.3829H23.2367V8.82826H25.0258C25.2824 8.81818 25.539 8.84744 25.7867 8.91517C25.9607 8.972 26.1105 9.08555 26.2118 9.23792C26.323 9.409 26.3792 9.61017 26.3728 9.8141C26.3773 9.99226 26.3348 10.1687 26.2498 10.3253C26.1673 10.4677 26.0505 10.5867 25.9098 10.672C25.7923 10.7388 25.665 10.7868 25.5327 10.8141C25.6319 10.8434 25.7263 10.8871 25.8127 10.944C25.877 10.9996 25.9344 11.0627 25.9838 11.132C26.0408 11.2004 26.0914 11.2743 26.1348 11.3522L26.6548 12.3829H25.4437ZM24.3168 10.2672H24.7698C24.8658 10.2603 24.9608 10.2439 25.0537 10.2189C25.1234 10.2046 25.1854 10.1652 25.2278 10.108C25.2729 10.0485 25.2968 9.97566 25.2958 9.90101C25.2989 9.85165 25.2909 9.80234 25.2723 9.75648C25.2538 9.71062 25.2252 9.66924 25.1887 9.63587C25.069 9.56233 24.9284 9.53052 24.7887 9.54505H24.3168V10.2672ZM19.7168 12.3829V8.82826H22.5947V9.58704H20.7948V10.152H22.4668V10.8781H20.7948V11.5783H22.6498V12.3829H19.7168ZM17.0647 12.3829V9.70619H15.9697V8.82826H19.2347V9.70619H18.1348V12.3829H17.0647ZM9.19971 12.3829V8.82826H12.0778V9.58704H10.2777V10.152H11.9487V10.8781H10.2698V11.5783H12.1228V12.3829H9.19971ZM7.03271 12.3829L6.42371 10.1442L5.81677 12.3829H4.76379L3.99072 8.82826H5.01074L5.37781 10.818L5.91577 8.82826H6.93176L7.4707 10.816L7.83777 8.82826H8.85278L8.08679 12.3829H7.03271Z" fill="#ECD345"/>
<path d="M35.1199 17.1453V8.76538H36.3198V17.1453H35.1199ZM32.1299 17.1453V8.76538H33.3298V17.1453H32.1299Z" fill="#ECD345"/>
</svg>
